<svg width="30" height="30" viewBox="0 0 30 30" fill="none" xmlns="http://www.w3.org/2000/svg">
<path d="M23.75 3.75H6.25C4.8625 3.75 3.75 4.875 3.75 6.25V23.75C3.75 25.125 4.8625 26.25 6.25 26.25H23.75C25.125 26.25 26.25 25.125 26.25 23.75V6.25C26.25 4.875 25.125 3.75 23.75 3.75ZM20 16.25H16.25V20C16.25 20.6875 15.6875 21.25 15 21.25C14.3125 21.25 13.75 20.6875 13.75 20V16.25H10C9.3125 16.25 8.75 15.6875 8.75 15C8.75 14.3125 9.3125 13.75 10 13.75H13.75V10C13.75 9.3125 14.3125 8.75 15 8.75C15.6875 8.75 16.25 9.3125 16.25 10V13.75H20C20.6875 13.75 21.25 14.3125 21.25 15C21.25 15.6875 20.6875 16.25 20 16.25Z" fill="#43BEE5"/>
</svg>
