<svg width="32" height="32" viewBox="0 0 32 32" fill="none" xmlns="http://www.w3.org/2000/svg">
<path d="M25.3333 5.33329H24V3.99996C24 3.26663 23.4 2.66663 22.6667 2.66663C21.9333 2.66663 21.3333 3.26663 21.3333 3.99996V5.33329H10.6667V3.99996C10.6667 3.26663 10.0667 2.66663 9.33333 2.66663C8.6 2.66663 8 3.26663 8 3.99996V5.33329H6.66667C5.18667 5.33329 4.01333 6.53329 4.01333 7.99996L4 26.6666C4 28.1333 5.18667 29.3333 6.66667 29.3333H25.3333C26.8 29.3333 28 28.1333 28 26.6666V7.99996C28 6.53329 26.8 5.33329 25.3333 5.33329ZM25.3333 25.3333C25.3333 26.0666 24.7333 26.6666 24 26.6666H8C7.26667 26.6666 6.66667 26.0666 6.66667 25.3333V12H25.3333V25.3333ZM9.33333 14.6666H12V17.3333H9.33333V14.6666ZM14.6667 14.6666H17.3333V17.3333H14.6667V14.6666ZM20 14.6666H22.6667V17.3333H20V14.6666Z" fill="#43BEE5"/>
</svg>
