<svg width="30" height="30" viewBox="0 0 30 30" fill="none" xmlns="http://www.w3.org/2000/svg">
<path d="M15 2.5C8.1 2.5 2.5 8.1 2.5 15C2.5 21.9 8.1 27.5 15 27.5C21.9 27.5 27.5 21.9 27.5 15C27.5 8.1 21.9 2.5 15 2.5ZM15 25C9.4875 25 5 20.5125 5 15C5 9.4875 9.4875 5 15 5C20.5125 5 25 9.4875 25 15C25 20.5125 20.5125 25 15 25ZM19.85 10.3625L12.5 17.7125L10.15 15.3625C9.6625 14.875 8.875 14.875 8.3875 15.3625C7.9 15.85 7.9 16.6375 8.3875 17.125L11.625 20.3625C12.1125 20.85 12.9 20.85 13.3875 20.3625L21.625 12.125C22.1125 11.6375 22.1125 10.85 21.625 10.3625C21.1375 9.875 20.3375 9.875 19.85 10.3625Z" fill="#8C8C8C"/>
</svg>
