<svg width="64" height="64" viewBox="0 0 64 64" fill="none" xmlns="http://www.w3.org/2000/svg">
<path d="M51.55 15H40V4C40 3.73478 39.8946 3.48043 39.7071 3.29289C39.5196 3.10536 39.2652 3 39 3H28C27.7348 3 27.4804 3.10536 27.2929 3.29289C27.1053 3.48043 27 3.73478 27 4V15H16.45C15.0046 15 13.6183 15.5742 12.5963 16.5963C11.5742 17.6183 11 19.0046 11 20.45V27C11 27.2652 11.1053 27.5196 11.2929 27.7071C11.4804 27.8946 11.7348 28 12 28V41.19C11.998 46.0025 10.3103 50.6624 7.22999 54.36C7.20419 54.3932 7.18393 54.4303 7.16999 54.47C7.14113 54.4991 7.11746 54.5329 7.09999 54.57C7.09423 54.6165 7.09423 54.6635 7.09999 54.71C7.09999 54.71 7.09999 54.79 7.09999 54.83V55.11V55.23C7.09572 55.2799 7.09572 55.3301 7.09999 55.38L7.15999 55.47C7.18102 55.5081 7.2044 55.5448 7.22999 55.58L11.23 60.58C11.318 60.7039 11.4331 60.8061 11.5665 60.8789C11.6999 60.9517 11.8482 60.9931 12 61H52H52.24C52.2823 60.9895 52.3228 60.9727 52.36 60.95L52.5 60.89L52.6 60.8C52.6409 60.7756 52.678 60.7453 52.71 60.71C52.7457 60.6651 52.779 60.6183 52.81 60.57C52.81 60.57 52.81 60.52 52.87 60.48L53.61 59C55.1772 55.8671 55.9954 52.413 56 48.91V28C56.2652 28 56.5196 27.8946 56.7071 27.7071C56.8946 27.5196 57 27.2652 57 27V20.45C56.9973 19.0054 56.4223 17.6207 55.4008 16.5992C54.3793 15.5777 52.9946 15.0026 51.55 15ZM55 20.45V26H53V20.45C53.0039 19.1936 52.5728 17.9746 51.78 17C52.6537 17.0608 53.4719 17.4506 54.0694 18.0908C54.667 18.7311 54.9996 19.5742 55 20.45ZM38 15H37V5H38V15ZM29 5H35V15H29V5ZM13 20.45C13.0026 19.5358 13.367 18.6598 14.0134 18.0134C14.6598 17.367 15.5358 17.0026 16.45 17H47.55C48.4642 17.0026 49.3402 17.367 49.9866 18.0134C50.633 18.6598 50.9973 19.5358 51 20.45V26H13V20.45ZM16 28H50V29H14V28H16ZM14 41.19V31H50V43.91C49.997 47.1031 49.2542 50.2521 47.83 53.11L47.38 54H9.99999C12.6013 50.2343 13.9963 45.7668 14 41.19ZM12.48 59L10.08 56H47.52L49.92 59H12.48ZM51.82 58.11L49.2 54.83L49.64 53.96C51.1901 50.8364 51.9978 47.397 52 43.91V31H54V48.91C53.9983 52.1044 53.2518 55.2545 51.82 58.11ZM54 29H52V28H54V29Z" fill="#8E44AD"/>
<path d="M42 42C41.8686 41.9862 41.7357 41.9986 41.6091 42.0364C41.4824 42.0743 41.3646 42.1369 41.2623 42.2205C41.16 42.3042 41.0753 42.4074 41.0131 42.524C40.9509 42.6406 40.9125 42.7684 40.9 42.9C40.6614 45.4118 39.956 47.857 38.82 50.11L38.1 51.56C38.042 51.6781 38.0078 51.8066 37.9996 51.9379C37.9913 52.0693 38.009 52.201 38.0518 52.3255C38.0945 52.45 38.1614 52.5648 38.2486 52.6634C38.3358 52.762 38.4416 52.8424 38.56 52.9C38.6971 52.9664 38.8476 53.0006 39 53C39.1874 53.0004 39.3712 52.9481 39.5303 52.849C39.6894 52.75 39.8175 52.6083 39.9 52.44L40.61 51C41.8531 48.5307 42.6262 45.8519 42.89 43.1C42.9039 42.9693 42.8918 42.8372 42.8546 42.7112C42.8173 42.5851 42.7556 42.4677 42.673 42.3655C42.5903 42.2634 42.4883 42.1785 42.3729 42.1158C42.2574 42.053 42.1307 42.0137 42 42Z" fill="#8E44AD"/>
<path d="M42 32C41.7348 32 41.4804 32.1054 41.2929 32.2929C41.1054 32.4804 41 32.7348 41 33V39.91C41 40.1752 41.1054 40.4296 41.2929 40.6171C41.4804 40.8046 41.7348 40.91 42 40.91C42.2652 40.91 42.5196 40.8046 42.7071 40.6171C42.8946 40.4296 43 40.1752 43 39.91V33C43 32.7348 42.8946 32.4804 42.7071 32.2929C42.5196 32.1054 42.2652 32 42 32Z" fill="#8E44AD"/>
<path d="M22 42C21.8686 41.9862 21.7357 41.9986 21.6091 42.0364C21.4824 42.0743 21.3646 42.1369 21.2623 42.2205C21.16 42.3042 21.0753 42.4074 21.0131 42.524C20.9509 42.6406 20.9125 42.7684 20.9 42.9C20.6614 45.4118 19.956 47.857 18.82 50.11L18.1 51.56C18.042 51.6781 18.0078 51.8066 17.9996 51.9379C17.9913 52.0693 18.009 52.201 18.0518 52.3255C18.0945 52.45 18.1614 52.5648 18.2486 52.6634C18.3358 52.762 18.4416 52.8424 18.56 52.9C18.6971 52.9664 18.8476 53.0006 19 53C19.1874 53.0004 19.3712 52.9481 19.5303 52.849C19.6894 52.75 19.8175 52.6083 19.9 52.44L20.61 51C21.8531 48.5307 22.6262 45.8519 22.89 43.1C22.9039 42.9693 22.8918 42.8372 22.8546 42.7112C22.8173 42.5851 22.7556 42.4677 22.673 42.3655C22.5903 42.2634 22.4883 42.1785 22.3729 42.1158C22.2574 42.053 22.1307 42.0137 22 42Z" fill="#8E44AD"/>
<path d="M22 32C21.7348 32 21.4804 32.1054 21.2929 32.2929C21.1054 32.4804 21 32.7348 21 33V39.91C21 40.1752 21.1054 40.4296 21.2929 40.6171C21.4804 40.8046 21.7348 40.91 22 40.91C22.2652 40.91 22.5196 40.8046 22.7071 40.6171C22.8946 40.4296 23 40.1752 23 39.91V33C23 32.7348 22.8946 32.4804 22.7071 32.2929C22.5196 32.1054 22.2652 32 22 32Z" fill="#8E44AD"/>
<path d="M32 38C31.7348 38 31.4804 38.1054 31.2929 38.2929C31.1054 38.4804 31 38.7348 31 39V40.91C30.9983 44.1044 30.2518 47.2545 28.82 50.11L28.1 51.56C28.042 51.6781 28.0078 51.8066 27.9996 51.9379C27.9913 52.0693 28.009 52.201 28.0518 52.3255C28.0945 52.45 28.1614 52.5648 28.2486 52.6634C28.3358 52.762 28.4416 52.8424 28.56 52.9C28.6971 52.9664 28.8476 53.0006 29 53C29.1874 53.0004 29.3712 52.9481 29.5303 52.8491C29.6894 52.75 29.8175 52.6083 29.9 52.44L30.61 51C32.1772 47.8671 32.9954 44.413 33 40.91V39C33 38.7348 32.8946 38.4804 32.7071 38.2929C32.5196 38.1054 32.2652 38 32 38Z" fill="#8E44AD"/>
<path d="M32 32C31.7348 32 31.4804 32.1054 31.2929 32.2929C31.1054 32.4804 31 32.7348 31 33V36C31 36.2652 31.1054 36.5196 31.2929 36.7071C31.4804 36.8946 31.7348 37 32 37C32.2652 37 32.5196 36.8946 32.7071 36.7071C32.8946 36.5196 33 36.2652 33 36V33C33 32.7348 32.8946 32.4804 32.7071 32.2929C32.5196 32.1054 32.2652 32 32 32Z" fill="#8E44AD"/>
</svg>
