<svg width="30" height="30" viewBox="0 0 30 30" fill="none" xmlns="http://www.w3.org/2000/svg">
<path d="M25 24.4875V11.0375C25 10.375 24.7375 9.7375 24.2625 9.275L18.225 3.2375C17.7625 2.7625 17.125 2.5 16.4625 2.5H7.5C6.125 2.5 5.0125 3.625 5.0125 5L5 25C5 26.375 6.1125 27.5 7.4875 27.5H22.5C23.0625 27.5 23.5625 27.3125 23.9875 27L18.45 21.4625C17.375 22.1625 16.0875 22.5625 14.7 22.4875C11.7375 22.35 9.2 20.0375 8.8 17.1C8.25 12.9125 11.8625 9.375 16.0875 10.0875C18.525 10.5 20.55 12.4 21.0875 14.8125C21.5 16.6375 21.1 18.3375 20.2125 19.6875L25 24.4875ZM11.25 16.25C11.25 18.325 12.925 20 15 20C17.075 20 18.75 18.325 18.75 16.25C18.75 14.175 17.075 12.5 15 12.5C12.925 12.5 11.25 14.175 11.25 16.25Z" fill="#43BEE5"/>
</svg>
