<svg width="40" height="40" viewBox="0 0 40 40" fill="none" xmlns="http://www.w3.org/2000/svg">
<path d="M31.6667 14.9999H23.3333L22.1333 12.5833C21.85 12.0166 21.2667 11.6666 20.6333 11.6666H11.6667V9.53325C12.6667 8.96658 13.3333 7.89992 13.3333 6.66659C13.3333 4.83325 11.8333 3.33325 10 3.33325C8.16666 3.33325 6.66666 4.83325 6.66666 6.66659C6.66666 7.89992 7.33333 8.96658 8.33333 9.53325V33.3333C8.33333 34.2499 9.08333 34.9999 10 34.9999C10.9167 34.9999 11.6667 34.2499 11.6667 33.3333V28.3333H20L21.2 30.7499C21.4833 31.3166 22.0667 31.6666 22.6833 31.6666H31.6667C32.5833 31.6666 33.3333 30.9166 33.3333 29.9999V16.6666C33.3333 15.7499 32.5833 14.9999 31.6667 14.9999ZM30 28.3333H23.3333L21.6667 24.9999H11.6667V14.9999H20L21.6667 18.3333H30V28.3333Z" fill="#41B853"/>
</svg>
