<svg width="40" height="40" viewBox="0 0 40 40" fill="none" xmlns="http://www.w3.org/2000/svg">
<path d="M33.3333 5H20C19.0833 5 18.3333 5.75 18.3333 6.66667V9.35C18.3333 9.35 18.3333 9.35 18.35 9.36667L26.6833 16.8667C27.7333 17.8 28.3333 19.1667 28.3333 20.5833V21.6667H31.6667V25H28.3333V28.3333H31.6667V31.6667H28.3333V35H33.3333C34.25 35 35 34.25 35 33.3333V6.66667C35 5.75 34.25 5 33.3333 5ZM25 11.6667H21.6667V8.33333H25V11.6667ZM31.6667 18.3333H28.3333V15H31.6667V18.3333ZM31.6667 11.6667H28.3333V8.33333H31.6667V11.6667Z" fill="#43BEE5"/>
<path d="M25 33.3334V20.5834C25 20.1167 24.8 19.6667 24.45 19.3501L16.1167 11.8501C15.8 11.5501 15.4 11.4167 15 11.4167C14.6 11.4167 14.2 11.5667 13.8833 11.8501L5.55 19.3501C5.2 19.6501 5 20.1001 5 20.5834V33.3334C5 34.2501 5.75 35.0001 6.66667 35.0001H10C10.9167 35.0001 11.6667 34.2501 11.6667 33.3334V26.6667H18.3333V33.3334C18.3333 34.2501 19.0833 35.0001 20 35.0001H23.3333C24.25 35.0001 25 34.2501 25 33.3334Z" fill="#43BEE5"/>
</svg>
