<svg width="30" height="30" viewBox="0 0 30 30" fill="none" xmlns="http://www.w3.org/2000/svg">
<path d="M15.1125 3.63744C12.6 1.12494 8.8375 0.612443 5.8125 2.08744L10.35 6.62494C10.8375 7.11244 10.8375 7.89994 10.35 8.38744L8.3625 10.3749C7.875 10.8749 7.0875 10.8749 6.6 10.3749L2.0625 5.83744C0.600004 8.87494 1.1125 12.6124 3.625 15.1249C5.95 17.4499 9.35001 18.0624 12.2375 16.9749L22.1875 26.9249C23.475 28.2124 25.55 28.2124 26.825 26.9249C28.1125 25.6374 28.1125 23.5624 26.825 22.2874L16.925 12.3749C18.075 9.44994 17.475 5.99994 15.1125 3.63744Z" fill="#43BEE5"/>
</svg>
