<svg width="32" height="32" viewBox="0 0 32 32" fill="none" xmlns="http://www.w3.org/2000/svg">
<path d="M16 2.66675C8.64002 2.66675 2.66669 8.64008 2.66669 16.0001C2.66669 23.3601 8.64002 29.3334 16 29.3334C23.36 29.3334 29.3334 23.3601 29.3334 16.0001C29.3334 8.64008 23.36 2.66675 16 2.66675ZM17.88 24.1201V24.8934C17.88 25.8667 17.08 26.6667 16.1067 26.6667H16.0934C15.12 26.6667 14.32 25.8667 14.32 24.8934V24.0934C12.5467 23.7201 10.9734 22.7467 10.3067 21.1067C10 20.3734 10.5734 19.5601 11.3734 19.5601H11.6934C12.1867 19.5601 12.5867 19.8934 12.7734 20.3601C13.16 21.3601 14.1734 22.0534 16.12 22.0534C18.7334 22.0534 19.32 20.7467 19.32 19.9334C19.32 18.8267 18.7334 17.7867 15.76 17.0801C12.4534 16.2801 10.1867 14.9201 10.1867 12.1867C10.1867 9.89342 12.04 8.40008 14.3334 7.90675V7.10675C14.3334 6.13341 15.1334 5.33341 16.1067 5.33341H16.12C17.0934 5.33341 17.8934 6.13341 17.8934 7.10675V7.93341C19.7334 8.38675 20.8934 9.53341 21.4 10.9467C21.6667 11.6801 21.1067 12.4534 20.32 12.4534H19.9734C19.48 12.4534 19.08 12.1067 18.9467 11.6267C18.64 10.6134 17.8 9.96008 16.12 9.96008C14.12 9.96008 12.92 10.8667 12.92 12.1467C12.92 13.2667 13.7867 14.0001 16.48 14.6934C19.1734 15.3867 22.0534 16.5467 22.0534 19.9067C22.0267 22.3467 20.2 23.6801 17.88 24.1201Z" fill="#41B853"/>
</svg>
