<svg id="_x34_04" enable-background="new 0 0 300 300" height="512" viewBox="0 0 300 300" width="512" xmlns="http://www.w3.org/2000/svg"><path d="m38 38h224v224h-224z" fill="#fff"/><path d="m262 270h-224c-4.422 0-8-3.578-8-8v-224c0-4.422 3.578-8 8-8h224c4.422 0 8 3.578 8 8v224c0 4.422-3.578 8-8 8zm-216-16h208v-208h-208z" fill="#5c128d"/><path d="m54 54h16v16h-16z" fill="#e86436"/><path d="m78 54h16v16h-16z" fill="#f6d831"/><path d="m46 94h208v160h-208z" fill="#f35cd2"/><path d="m102 54h16v16h-16z" fill="#2ee52b"/><g fill="#5c128d"><path d="m38 78h224v16h-224z"/><path d="m70 182c-4.422 0-8-3.578-8-8v-40c0-4.422 3.578-8 8-8s8 3.578 8 8v40c0 4.422-3.578 8-8 8z"/><path d="m110 182h-40c-4.422 0-8-3.578-8-8s3.578-8 8-8h40c4.422 0 8 3.578 8 8s-3.578 8-8 8z"/><path d="m110 222c-4.422 0-8-3.578-8-8v-80c0-4.422 3.578-8 8-8s8 3.578 8 8v80c0 4.422-3.578 8-8 8z"/><path d="m190 182c-4.422 0-8-3.578-8-8v-40c0-4.422 3.578-8 8-8s8 3.578 8 8v40c0 4.422-3.578 8-8 8z"/><path d="m230 182h-40c-4.422 0-8-3.578-8-8s3.578-8 8-8h40c4.422 0 8 3.578 8 8s-3.578 8-8 8z"/><path d="m230 222c-4.422 0-8-3.578-8-8v-80c0-4.422 3.578-8 8-8s8 3.578 8 8v80c0 4.422-3.578 8-8 8z"/><path d="m166 222h-32c-4.422 0-8-3.578-8-8v-80c0-4.422 3.578-8 8-8h32c4.422 0 8 3.578 8 8v80c0 4.422-3.578 8-8 8zm-24-16h16v-64h-16z"/></g></svg>