<svg width="30" height="30" viewBox="0 0 30 30" fill="none" xmlns="http://www.w3.org/2000/svg">
<path d="M27.375 11.1125L26.0625 5.65C25.7875 4.525 24.8125 3.75 23.675 3.75H20.9125H18.4H16.25H13.75H11.6H9.07501H6.31251C5.18751 3.75 4.20001 4.5375 3.93751 5.65L2.62501 11.1125C2.32501 12.3875 2.60001 13.6875 3.40001 14.7125C3.50001 14.85 3.63751 14.95 3.75001 15.075V23.75C3.75001 25.125 4.87501 26.25 6.25001 26.25H23.75C25.125 26.25 26.25 25.125 26.25 23.75V15.075C26.3625 14.9625 26.5 14.85 26.6 14.725C27.4 13.7 27.6875 12.3875 27.375 11.1125ZM8.77501 6.25L8.05001 12.325C7.95001 13.1375 7.30001 13.75 6.53751 13.75C5.92501 13.75 5.53751 13.3875 5.37501 13.1625C5.05001 12.75 4.93751 12.2125 5.06251 11.7L6.31251 6.25H8.77501ZM23.6375 6.2375L24.95 11.7C25.075 12.225 24.9625 12.75 24.6375 13.1625C24.4625 13.3875 24.0875 13.75 23.4625 13.75C22.7 13.75 22.0375 13.1375 21.95 12.325L21.225 6.25L23.6375 6.2375ZM19.3875 11.9C19.45 12.3875 19.3 12.875 18.975 13.2375C18.6875 13.5625 18.2875 13.75 17.775 13.75C16.9375 13.75 16.25 13.0125 16.25 12.1125V6.25H18.7L19.3875 11.9ZM13.75 12.1125C13.75 13.0125 13.0625 13.75 12.1375 13.75C11.7125 13.75 11.325 13.5625 11.025 13.2375C10.7125 12.875 10.5625 12.3875 10.6125 11.9L11.3 6.25H13.75V12.1125ZM22.5 23.75H7.50001C6.81251 23.75 6.25001 23.1875 6.25001 22.5V16.2125C6.35001 16.225 6.43751 16.25 6.53751 16.25C7.62501 16.25 8.61251 15.8 9.33751 15.0625C10.0875 15.8125 11.0875 16.25 12.225 16.25C13.3125 16.25 14.2875 15.8 15.0125 15.0875C15.75 15.8 16.75 16.25 17.875 16.25C18.925 16.25 19.925 15.8125 20.675 15.0625C21.4 15.8 22.3875 16.25 23.475 16.25C23.575 16.25 23.6625 16.225 23.7625 16.2125V22.5C23.75 23.1875 23.1875 23.75 22.5 23.75Z" fill="#EFA500"/>
</svg>
