<svg width="30" height="30" viewBox="0 0 30 30" fill="none" xmlns="http://www.w3.org/2000/svg">
<path d="M20 20H22.5C23.1875 20 23.75 20.5625 23.75 21.25C23.75 21.9375 23.1875 22.5 22.5 22.5H20C19.3125 22.5 18.75 21.9375 18.75 21.25C18.75 20.5625 19.3125 20 20 20ZM20 10H26.25C26.9375 10 27.5 10.5625 27.5 11.25C27.5 11.9375 26.9375 12.5 26.25 12.5H20C19.3125 12.5 18.75 11.9375 18.75 11.25C18.75 10.5625 19.3125 10 20 10ZM20 15H25C25.6875 15 26.25 15.5625 26.25 16.25C26.25 16.9375 25.6875 17.5 25 17.5H20C19.3125 17.5 18.75 16.9375 18.75 16.25C18.75 15.5625 19.3125 15 20 15ZM3.75 22.5C3.75 23.875 4.875 25 6.25 25H13.75C15.125 25 16.25 23.875 16.25 22.5V10H3.75V22.5ZM16.25 6.25H13.75L12.8625 5.3625C12.6375 5.1375 12.3125 5 11.9875 5H8.0125C7.6875 5 7.3625 5.1375 7.1375 5.3625L6.25 6.25H3.75C3.0625 6.25 2.5 6.8125 2.5 7.5C2.5 8.1875 3.0625 8.75 3.75 8.75H16.25C16.9375 8.75 17.5 8.1875 17.5 7.5C17.5 6.8125 16.9375 6.25 16.25 6.25Z" fill="#EFA500"/>
</svg>
